# xmcd
#
# Track frame offsets: 
#        150
#        15625
#        31582
#        45364
#        59689
#        72645
#        91054
#        108590
#        123888
#        140009
#        152937
#        168837
#        183773
#        199555
#        214069
#        228021
#        245014
#
# Disc length: 3475 seconds
#
# Revision: 0
# Processed by: cddbd v1.5.2PL0 Copyright (c) Steve Scherf et al.
# Submitted via: ExactAudioCopy v0.95b4
#
DISCID=df0d9111
DTITLE=배호 - 천상의 가수 배호 전집 (아세아-2006) (10 CD)-01
DYEAR=2006
DGENRE=Country
TTITLE0=돌아가는 삼각지
TTITLE1=비겁한 맹서
TTITLE2=인생 나루
TTITLE3=비오는 남산
TTITLE4=비내린 인천항 부두
TTITLE5=뉘우친 마음
TTITLE6=경상도 나그네
TTITLE7=안개 낀 장충단공원
TTITLE8=기타에 노래싣고
TTITLE9=사랑찾아 천리길
TTITLE10=영월의 애가
TTITLE11=돌아가는 삼각지(MR)
TTITLE12=비겁한 맹서 (경음악)
TTITLE13=비오는 남산(MR)
TTITLE14=안개 낀 장충단공원(MR)
TTITLE15=경상도 나그네(MR)
TTITLE16=영월의 애가(MR)
EXTD=
EXTT0=
EXTT1=
EXTT2=
EXTT3=
EXTT4=
EXTT5=
EXTT6=
EXTT7=
EXTT8=
EXTT9=
EXTT10=
EXTT11=
EXTT12=
EXTT13=
EXTT14=
EXTT15=
EXTT16=
PLAYORDER=
